<?xml version="1.0" standalone="no"?>
<!DOCTYPE svg PUBLIC "-//W3C//DTD SVG 20010904//EN"
 "http://www.w3.org/TR/2001/REC-SVG-20010904/DTD/svg10.dtd">
<svg version="1.0" xmlns="http://www.w3.org/2000/svg"
 width="500.000000pt" height="500.000000pt" viewBox="0 0 500.000000 500.000000"
 preserveAspectRatio="xMidYMid meet">

<!-- Theme-adaptive styles -->
<style>
<![CDATA[
.theme-adaptive {
  /* Default light theme - dark icon */
  fill: #000000;
}

/* Dark theme - light icon */
@media (prefers-color-scheme: dark) {
  .theme-adaptive {
    fill: #ffffff;
  }
}

/* CSS class-based theme detection for compatibility */
.dark .theme-adaptive {
  fill: #ffffff;
}

.light .theme-adaptive {
  fill: #000000;
}
]]>
</style>

<g transform="translate(0.000000,500.000000) scale(0.100000,-0.100000)"
class="theme-adaptive" stroke="none">
<path d="M1490 4561 c-167 -32 -344 -159 -433 -311 -64 -109 -82 -185 -82
-335 0 -131 9 -182 52 -275 50 -110 166 -232 273 -289 51 -27 59 -36 55 -54
-5 -22 -25 -163 -45 -322 -6 -44 -15 -111 -20 -150 -14 -104 -41 -322 -49
-385 -6 -52 -7 -55 -33 -52 -38 5 -173 -15 -225 -33 -191 -65 -329 -209 -391
-409 -21 -69 -21 -263 0 -332 67 -214 241 -375 456 -419 119 -24 206 -17 322
27 53 21 168 91 182 111 5 9 71 -41 144 -108 6 -5 54 -46 108 -90 107 -88 103
-78 65 -180 -31 -82 -34 -301 -5 -385 45 -134 127 -243 242 -319 177 -119 396
-131 594 -35 99 49 220 169 267 266 87 177 88 398 4 554 l-29 53 210 119 209
119 60 -58 c114 -109 221 -152 379 -152 162 0 275 47 385 157 279 281 168 752
-209 884 -100 35 -240 35 -344 -1 -77 -27 -154 -71 -191 -111 l-24 -25 -91 97
c-50 53 -135 143 -190 200 -95 97 -100 104 -86 125 65 103 90 184 90 293 0
193 -125 374 -307 445 -88 34 -230 38 -318 10 -37 -12 -84 -33 -105 -46 l-38
-24 -49 54 c-26 30 -97 106 -156 169 l-108 115 47 58 c334 409 55 1029 -471
1048 -55 2 -120 0 -145 -4z m471 -1299 c195 -207 274 -296 271 -306 -2 -6 -10
-23 -17 -39 -27 -54 -38 -134 -33 -239 l5 -104 -64 -49 c-36 -28 -76 -60 -91
-71 -104 -83 -369 -291 -380 -298 -8 -4 -29 10 -60 42 -26 27 -74 66 -105 87
-53 35 -57 40 -52 69 5 27 115 902 115 912 0 2 35 4 78 4 78 0 148 14 212 43
19 8 40 16 46 16 6 1 40 -30 75 -67z m399 -919 c39 -30 60 -53 60 -67 0 -82
-21 -785 -26 -843 l-6 -73 -33 0 c-74 0 -184 -49 -301 -135 -20 -15 -29 -10
-193 131 -122 104 -171 151 -168 163 3 9 16 43 28 76 19 50 23 80 24 175 0 63
-4 131 -8 150 l-8 35 117 90 c64 50 122 95 128 100 6 6 70 56 142 112 72 56
137 109 144 118 20 24 35 19 100 -32z m734 -282 l205 -220 -14 -48 c-10 -32
-15 -86 -14 -163 l2 -115 -84 -49 c-46 -27 -151 -89 -233 -138 l-150 -88 -35
24 c-35 24 -127 69 -165 80 -15 5 -17 13 -12 49 3 23 10 209 16 412 6 204 13
385 16 403 l5 32 62 1 c34 0 87 8 117 19 30 10 60 18 67 19 6 1 104 -98 217
-218z"/>
</g>
</svg>
